# xmcd
#
# Track frame offsets:
#	150
#	14653
#	29843
#	44916
#	60529
#	79139
#	93204
#	103889
#	118919
#	135351
#	148027
#	162653
#	181455
#	192838
#	206747
#	221851
#	237769
#	254581
#	271966
#	286566
#
# Disc length: 4011 seconds
#
# Revision: 1
# Processed by: cddbd v1.5.2PL0 Copyright (c) Steve Scherf et al.
# Submitted via: EasyCDDAExtractor 16.0.6.1
#
DISCID=3b0fa914
DTITLE=Όλα τα ρεμπέτικα 01
DYEAR=2008
DGENRE=Ρεμπέτικη
TTITLE0=Μπέλλου Σωτηρία - Αλήτη μ' είπες μιά βραδιά [Απ. Χατζηχρήστος]
TTITLE1=Καζαντζίδης Στέλιος - Αραπίνες [Βασ. Τσιτσάνης]
TTITLE2=Γλυκερία - Καραπιπερίμ [Γιάννης Παπαϊωάννου]
TTITLE3=Πουλόπουλος Γιάννης - Σα μαγεμένο το μυαλό μου [Δημ. Γκόγκος Μπαγιαντέ
TTITLE3=ρας]
TTITLE4=Μαριώ - Μισιρλού [Νίκος Ρουμπάνης]
TTITLE5=Ευσταθίου Δημήτρης - Το βαπόρι απ' την Περσία [Βασ. Τσιτσάνης]
TTITLE6=Μουφλουζέλης Γιώργος - Εγώ δεν έχω βγάλει το σχολείο [Γ. Μουφλουζέλης]
TTITLE7=Παπάζογλου Σοφία - Τράβα, ρε μάγκα και αλάνι [Κώστας Σκαρβέλης]
TTITLE8=Ιακωβίδης Αγάθωνας-χορωδία - Φραγκοσυριανή [Μ. Βαμβακάρης]
TTITLE9=Εσκενάζυ Ρόζα - Ελενάκι
TTITLE10=Περπινιάδης Βαγγέλης - Τα νέα της Αλεξάνδρας [Κώστας Γιαννίδης]
TTITLE11=Απόδημη κομπανία - Πού να βρω γυναίκα να σου μοιάζει [Κ. Ανατολίτης-Α
TTITLE11=ντ. Νταλγκάς]
TTITLE12=Νικολαΐδης Απόστολος - Κάτω στα λεμονάδικα (Οι λαχανάδες)[Βαγγ. Παπάζ
TTITLE12=ογλου]
TTITLE13=Γενίτσαρης Μιχάλης - Το κατσαρό σκυλάκι σου
TTITLE14=Βαμβακάρης Μάρκος - Πρέπει να ξέρεις μηχανή [Μ. Βαμβακάρης]
TTITLE15=Τα παιδιά από την Πάτρα - Ψιλοβρέχει [Γιώργος Μητσάκης]
TTITLE16=Γκολές Μπάμπης - Βαδίζω και παραμιλώ [Γιάννης Παπαϊωάννου]
TTITLE17=Δασκαλάκης Μιχάλης - Ζούλα σε μιά βάρκα μπήκα (ζεϊμπ. σπανιόλο)[Γιώργ
TTITLE17=ος Μπάτης]
TTITLE18=Παγιουμτζής Στράτος-Κηρομύτης Στέλιος - Της μαστούρας ο σκοπός [Βασ. 
TTITLE18=Τσιτσάνης]
TTITLE19=Νίνου Μαρίκα - Ζαΐρα [Β. Τσιτσάνης-Κώστας Βίρβος]
EXTD=
EXTT0=
EXTT1=
EXTT2=
EXTT3=
EXTT4=
EXTT5=
EXTT6=
EXTT7=
EXTT8=
EXTT9=
EXTT10=
EXTT11=
EXTT12=
EXTT13=
EXTT14=
EXTT15=
EXTT16=
EXTT17=
EXTT18=
EXTT19=
PLAYORDER=
